<svg enable-background="new 0 0 571.5 632.057" height="60" viewBox="0 0 120 59.999999" width="120" xmlns="http://www.w3.org/2000/svg"><g transform="matrix(1.4993949 0 0 1.4993949 -68.276382 -35.295723)"><g fill="#ccc"><path d="m55.934606 43.244143h5.210169v8.525855c-2.187261.977873-5.130248 1.238137-7.292443-.40353-1.857006-1.410071-2.902867-4.972728-2.287122-8.288094s2.534012-5.056093 4.547016-5.636202c2.013004-.580269 4.286672.07023 4.925961.509077l-.805218 3.836535c-.895148-.491619-1.660646-.763575-2.6406-.580269-2.398756.449016-1.986497 5.538423-1.373555 6.631292.496344.884979.888102.816909.888102.816909l.01185-1.669535-1.184162-.01185z" stroke-width=".080081"/><path d="m69.468185 38.193095c-1.821849-1.22124-5.225305-1.141159-7.167276-.500509l.02002 14.574797c1.901931.300305 5.265346.520529 7.107215-.820833 1.97905-1.441303 2.662704-3.863923 2.642683-6.76687-.02058-2.983029-.780792-5.265346-2.602642-6.486585zm-1.721748 6.666768c-.04004 3.523577-1.201219 3.823882-1.201219 3.823882v-7.687805s1.2813.260264 1.201219 3.863923z" stroke-width=".080081"/><path d="m291.02 409.364-40.75 188.5h52l7.75-38.25h13.75l7.25 38.25 52.25-.25-36.75-188z" transform="matrix(.0800813 0 0 .0800813 51.38823 4.529799)"/><path d="m442.52 550.114v-140.75h-53v188.25h96v-47.5z" transform="matrix(.0800813 0 0 .0800813 51.38823 4.529799)"/></g><g transform="matrix(.0800813 0 0 .0800813 51.38823 4.529799)"><path d="m112.02 583.364c-7.25 3-22.75 6-35 6-19.25 0-33.75-5.5-45-16.75-14.5-14-22.25-39-21.75-68 .75-61.25 35.75-86.75 71.5-86.75 12.75 0 22.25 2.5 27.5 5l-5.75 28.25c-4.75-2.25-11-3.75-19.25-3.75-22.25 0-40 15.25-40 59.25 0 40.5 15.75 55 31 55 3 0 5.25-.25 6.5-.75v-40.75h-15v-26.75h45.25z"/><path d="m146.516 421.864c8.25-2 20.25-3.25 33.25-3.25 21.25 0 36 5 46.75 15 14.5 13 22 35.25 22 68 0 34-8.75 58.25-23.5 71.25-11.25 11-28 16.25-51.5 16.25-10.25 0-20.5-1-27-1.75zm32.75 140c1.5.5 4 .5 5.75.5 15.75 0 29.5-15.5 29.5-62 0-34.5-9-55.5-28.75-55.5-2.25 0-4.5 0-6.5.75z"/><path d="m302.018 549.364-7.5 38.5h-31.75l36.5-168.5h39.25l32.75 168.5h-31.75l-7.25-38.5zm27.25-25.5-5.5-35.25c-1.75-10.25-4-27-5.5-38.25h-.75c-1.75 11.25-4.25 28.75-6 38.5l-6.25 35z"/><path d="m399.766 419.364h32.75v140.75h43.25v27.75h-76z"/></g></g><g transform="translate(14.07058 -1.837772)"><g stroke-width=".080081"><ellipse cx="79.137764" cy="37.092297" fill="#71c9f1" rx="18.016771" ry="18.053448"/><path d="m91.587281 41.158185c-.601331-.0571-1.3002.01786-1.873182-.203166-.665155-.256581-.36413-.824838-.753805-1.287548-.302707-.359324-.887221-.474882-1.296356-.683574-.557366-.284208-1.096954-.6115-1.705892-.777589-.629599-.171614-1.383084.02667-1.933963.3345-.172736.0965-.568578.425712-.773666.262907-.214698-.170333.160723-.879053-.33522-.703995-.453821.160162-.667318.854147-1.041057.800813-.445492-.06383-.804417-.198922-1.257277-.162165-.395201.03203-.789761.131734-1.066522-.238962-.292697-.392159-.02354-.884258-.207411-1.286106-.31576-.690381-1.129947-.02498-1.624689-.334019.3546-.267472.685175-.737389.705676-1.193372.01922-.42411-.269473-.743555-.677408-.470557-.223747.149752-.21758.42427-.383269.609418-.286611.320165-1.764351.401047-1.873261-.170653-.102024-.535984-.304309-1.528592-.04909-2.03895.197-.394.447414-.858632.892105-1.010626.453421-.155117 1.074371.0213 1.579684-.10787.433961-.110912.918613-.255219 1.344885-.04621.434922.213256.509398.694224.694706 1.111208.106748.240244.507155.560569.400246-.0808-.08352-.501069-.553041-1.113691-.307112-1.603068.220464-.437964.750762-.58131 1.033449-.957532.277242-.368774.07728-.844697.286772-1.233732.208772-.387754.701031-.510038.893066-.915089.09361-.197481.519888-1.360742.945921-.992448.180663.156159.07327.355.356281.15784.115558-.08048.544313-.381988.288373-.523731-.235279-.130213-.64065.07824-.769902-.249213-.222786-.564333.820353-.853427.956972-1.263363.08008-.240244.08-.320325-.533902-.560569-.421468-.164968-.867601-1.070367-1.292192-1.042739-.23696.01546-.188591.27572-.339224.318804-.357003.102104-.552882-.441328-.798811-.628798-.177781-.135418-.842856-.423791-1.061478-.257142-.526054.400968.884738 2.420218-.110272 2.801405-.244328.09361-.759251-.94488-1.100958-1.084381-.550639-.224869-1.485908-.14711-1.464526-1.014871.02074-.844057 1.081337-.598047 1.332633-1.173671.222786-.510278-.56121-1.296116-1.021437-1.177516-.02507.12757.06126.428275-.01874.524293-.251055.300224-1.816645.0069-2.160274-.100582-.592441-.185309-1.220519-.31496-1.765072-.624074-.472159-.268032-.728659-.770622-1.330951-.544793-.427073.160162-.687177.380226-1.060837.540469-.361407.154957-.766378.173055-1.125462.344269-.36381.173536-.148071.822675-.436043 1.136594-.350356.381748-.938313.360926-1.412714.406332-.11844.01137-.889063.02923-.910044.155358-.03019.197401 1.948938-.01794 2.086838-.05742.317283-.09081.549679-.323769.855189-.441168.365411-.140382.805938-.203727.992287.196359.217821.469757.03924.929104-.126849 1.380202-.18747.509237-.120522.632402.01546 1.137795.08513.316401.02314.509157-.109952.805778-.330976.737869-1.239338 2.046718-.903317 2.910715.257702.662672.833166 1.225164 1.283704 1.757784.30631.362128.257221.717449.474241 1.135233.205168.394881.510038.772944.75821 1.143961.356201.532461.431718 1.225324.859432 1.712619.375501.427954 1.513136 1.185844 2.102855 1.204903.178501.0057.338504-.162885.510919-.143265.536144.06166.860553.577546 1.325906.78792.425392.192275 1.008464.03067 1.366828.367653.448615.421708.489216 1.060436 1.169827 1.245664.339225.09217.775107-.0635 1.090868.0929.914608.45334.2963 1.51698.00024 2.113105-.307272.618468-.633123 1.340721-.50171 2.049761.113476.612302.583793 1.010145.907242 1.508812.280444.432279.360205 1.001657.829882 1.286906.367894.223347 1.089506.238562 1.301241.655225.235679.463911-.292056 1.175594-.405852 1.622367-.144306.566656-.319925 1.128506-.496184 1.686192-.175938.556806-.470798.943758-.713524 1.451394-.200524.419305-.765417 2.05881.08897 1.982733 1.214113-.10851 1.66425-1.70397 2.701703-2.093165.213497-.08008 2.002033-1.414717 2.322358-1.681708.320325-.266831 1.121138-.587156 1.227886-.907481.106749-.320325.507155-.560569.640651-1.121218.153516-.644815 1.171109-.819392 1.611556-1.255034.602612-.596206.902836-1.471734 1.217796-2.241556.268273-.655626.84702-1.155093 1.011587-1.865414.207251-.895068-.491138-1.109046-1.335035-1.189287z" fill="#359946"/><path d="m81.929476 35.067602c-.136939-.03684-.294059-.03291-.435002-.07832-.212856-.06855-.397603-.208692-.606535-.288613-.220304-.08433-.446454-.146869-.682373-.164006-.128451-.0094-.258503-.0039-.385431.01834-.11828.02074-.241606.05582-.351317.105307-.04629.0209-.130453.06463-.100822.131413.05245.11788.390876.04132.486493.0414.352919.000321.767339-.0087 1.059076.222707.07584.06022.145107.129011.205248.205008.04909.06174.09273.132214.166329.16777.07223.03492.148631-.0049.216059-.03347.09562-.04052.192436-.07856.291576-.109711.08128-.02547.183707-.03508.241365-.105067.04805-.0583-.03315-.09346-.104666-.112754z" fill="#359946"/><path d="m83.555847 35.370229c-.186429-.04773-.400326.166729-.667397.06006-.241926-.09682-.297743-.21614-.452139-.245209-.09642-.01818-.260985.03347-.135178.145107.217741.193156.37398.367413.640651.487215.165848.07447.580909.01706.740752-.07352.273718-.154877.160242-.300305-.126689-.373659z" fill="#359946"/><path d="m84.815606 26.430913c-.07271-.04557-.328894-.592201-.539027-.156639-.273638.567216.725857.701112.828441.579068s-.261145-.404731-.289414-.422429z" fill="#359946"/><path d="m80.277319 22.074891c-.159602-.06511-1.590415-.644574-1.637823-.194197-.03099.293818.550078.343148.72906.389916.281086.07351.736428.293017.813226.606055.05293.21638-.245209.488016.170813.488016.18683 0 .587236.106748.587236.106748s.18667.106668.346752.08008c.451178-.07472-.294379-.786078-.40385-.90652-.205008-.225429-.310715-.449817-.605414-.570098z" fill="#359946"/><path d="m76.145044 21.585434c-.134377-.04965-.479127-.0969-.508837-.08048-.304309.168892-.310635.253378.01874.414101.302867.14783.606055.268993.935109.346992.182666.04332.5508.04437.376703-.243047-.147029-.242486-.573462-.345871-.821714-.437564z" fill="#359946"/><path d="m79.322429 20.521634c-.155678-.119401-.391918.0093-.540869.07736-.343709.156879-.698149.0579-1.046102.166008-.09025.02803-.233277.0989-.240404.209733-.0094.145348.198442.184027.299504.223107.156559.06054.284449.192755.464712.156158.144467-.02931.258102-.140062.404891-.168571.169132-.03283.33458-.05181.463991-.176499.09554-.09201.355161-.363169.194277-.487295z" fill="#359946"/><path d="m84.16983 22.670616c-.02218-.155598.0035-.312477-.02314-.467114-.146469-.849182-1.198657-1.297958-1.904814-1.584809-.285089-.115798-.602211-.198362-.910524-.21646-.404171-.02362-.938313-.06799-1.294354.166809-.125408.08272-.196199.200924-.173617.368054.03932.289814.581551.235359.782155.284369.573141.139982 1.045701.406172 1.495758.790002.674445.575304 1.276176 1.073169 2.108701 1.406468.133415.05341.399686.111553.341226-.112194-.08256-.3152-.367973-.261386-.421388-.635125z" fill="#359946"/><path d="m93.589634 27.171505c.02819.515163.09145 1.032168.2561 1.523227.07904.235599.213977.448455.298142.682132.198041.550159.08545 1.145163.194037 1.709816.106909.555844.480168 1.00462.642412 1.540764.150233.496264.05566 1.071888.267232 1.548132.120682.271556.346592.478646.498426.732343.192115.321126.409295 1.186965.818431 1.292433.289494.07464.262907-.603573.303027-.775187.04156-.177701.101463-.366773.151034-.557446-.392239-3.197967-1.618443-6.137351-3.454868-8.592323-.0014.02795.01105.62071.02603.896109z" fill="#359946"/><path d="m89.55762 22.541845c.0382.170093.08441.372859-.0086.446213-.168972.133336-.424191-.111313-.548878-.211014-.101062-.0808-.301666-.296942-.44397-.22679-.242166.119401.588998.717128.661231.785757.115397.109712.199803.2553.323528.354841.24625.197961.292778-.03588.469357-.15696.269393-.184827.513801.160003.641211.346272.196679.287492.322407.608538.540308.883777.249534.3152.494342.628798.701753.977633.21734.36533.430437.736107.708159 1.060036.180183.210213.525253.339865.602211.272516.131894-.115317-.06759-.336021-.109952-.451418-.117639-.320325-.331296-.59124-.488415-.891465-.15752-.301106-.355882-1.000616-.359245-1.022878-.825398-.876891-1.737044-1.671137-2.721963-2.368565-.0012.04837.01505.121563.03323.202045z" fill="#359946"/><path d="m84.984017 20.315105c.346832.297502.78784.476483 1.214433.647137.266911.106748.346992.240243.667317.400406.396002.198041.766138.401528 1.187286.545354.121483.04148.425952.20757.547836.121963.05398-.03796.06326-.150552.04773-.272036-1.247186-.77839-2.596075-1.408149-4.022403-1.864853.01257.02539.234478.316321.357803.422029z" fill="#359946"/><path d="m66.015079 18.394194-.186829.495223 14.93324 5.501185c.03235-.168731.120122-.326732.173136-.500268z" fill="#ed1e3a"/><path d="m65.845147 18.930339-2.714276 15.68192c.176339.118681.354921.22583.537826.328494l2.755918-15.922165z" fill="#ed1e3a"/><path d="m70.991091 27.607708c-5.335497 3.30007-7.344896 6.475054-7.69349 7.077265.136138.08152.273637.15712.413059.229994.825398-1.290751 3.035161-4.207952 7.543979-6.955942 4.101283-2.499658 7.687965-3.274925 9.4371-3.514849.02835-.142544.09762-.272276.165849-.406092-1.144923.13766-5.406929.811304-9.866497 3.569624z" fill="#ed1e3a"/></g><path d="m183.091 103.005-14.161-51.353 80.769-51.652 14.161 51.352z" fill="#666667" transform="matrix(.0800813 0 0 .0800813 51.38823 4.529799)"/><path d="m65.481177 13.690859s-1.002778.277162-1.866134.788401c-.863357.511239-1.587452 1.256716-1.587452 1.256716l-2.739341-4.604675s.532781-.988844 1.412795-1.5098529c.846058-.5010687 2.040631-.5351833 2.040631-.5351833z" stroke-width=".080081"/><path d="m63.600068 15.462898c1.579203-1.032328 3.302793-1.609473 3.983003-1.353534-.438285-.200763-2.173646-.86696-4.01912.179703-1.91058 1.08358-2.096769 2.767369-2.095327 3.393765.08617-.542551.888822-1.407589 2.131444-2.219934z" fill="#666667" stroke-width=".080081"/><path d="m67.866799 14.578641c.01113-.07888.0067-.150953-.01417-.214698-.0089-.02739-.02082-.05325-.03588-.07744-.01001-.0161-.02138-.03155-.03419-.04629-.02547-.02939-.05662-.05582-.09346-.07912-.110432-.06975-.264589-.105948-.4531-.111553-.03139-.000961-.06375-.000961-.09706-.000241-.06655.0014-.136778.0064-.210293.01441-.03676.0041-.0744.009-.112755.01458-.01922.0028-.03852.0058-.05822.0091-.03908.0065-.07904.01369-.119641.0217-.02034.0041-.04084.0082-.06158.01257-.04132.0087-.08336.01834-.126048.02867-.811223.195959-1.859327.664675-2.850413 1.312532-.96506.630721-1.66473 1.293474-1.96968 1.81224-.01642.02795-.03179.05558-.04589.0828-.01417.02715-.02715.05389-.03892.08016-.01169.02627-.02226.05205-.03171.07728-.03283.08841-.05077.170653-.05285.245529-.000641.02146.00008.0422.0021.06246.01177.121003.07079.219423.181224.289173.589158.372138 2.419897-.210613 4.089111-1.301801.05213-.03411.103546-.06831.154077-.102504 1.163821-.78784 1.906575-1.610195 1.979369-2.129602z" fill="#989898" stroke-width=".080081"/><path d="m55.840015-33.901814h3.995718v.196603h-3.995718z" stroke-width=".080083" transform="matrix(.7020892 .71208901 -.71208901 .7020892 0 0)"/><path d="m-34.772896 59.470036h3.995663v.196524h-3.995663z" stroke-width=".080083" transform="matrix(-.24909457 -.96847917 .96847917 -.24909457 0 0)"/><path d="m66.021966 18.319559-1.777564-3.228798c-.07135.02186-.135418.03644-.1773.08569l1.78269 3.237927z" stroke-width=".080081"/><circle cx="66.148331" cy="18.692257" r=".533502" stroke-width=".080081"/><path d="m26.927 204.696-13.645-51.699 83.697-53.622 13.645 51.7z" fill="#666667" transform="matrix(.0800813 0 0 .0800813 51.38823 4.529799)"/><path d="m59.194475 14.796302.202526.28621 1.885514-1.22212c-.02146-.04549-.174738-.263708-.201805-.303509z" stroke-width=".080081"/><path d="m64.039954 11.697155.202526.286211 1.885594-1.222121c-.02154-.04557-.174737-.263788-.201885-.303588z" stroke-width=".080081"/></g></svg>