<svg enable-background="new 0 0 120 60" height="60" viewBox="0 0 120 60" width="120" xmlns="http://www.w3.org/2000/svg"><path d="m25.2 11.7c.3-.1 1.3-.1 1.6-.1 7.1-.1 17 6 17.6 17.6v14.4c0 2.6-2.1 4.7-4.7 4.7-1.9 0-4.4-2.4-4.4-4.7v-14.4c-.3-3.8-3.3-8.1-8.5-8.4-.3 0-1 0-1.5 0" fill="#fbbc04"/><path d="m44.3 43.7c0 2.5-2.1 4.6-4.6 4.6s-4.6-2.1-4.6-4.6 2-4.6 4.6-4.6c2.6.1 4.6 2.1 4.6 4.6z" fill="#4285f4"/><path d="m25.4 48.2c2.6 0 4.8-2.1 4.8-4.7s-2.2-4.4-4.8-4.4c-4.5-.3-8.7-4.3-8.4-9.7v-.1c.3-4.3 3.9-8.1 8.5-8.4 2.6 0 4.8-1.9 4.8-4.5s-2.1-4.7-4.8-4.7c-.1 0-.2 0-.3 0-8 .3-17.3 6.9-17.4 18.1v.1c0 11.4 10 18.2 17.5 18.2z" fill="#ea4335"/><g fill="#5f6368"><path d="m54.8 36.6h-1.9l5.1-13.5h2l5.1 13.5h-1.9l-1.3-3.7h-5.7zm4.2-11.4-2.2 6.1h4.5z"/><path d="m69.9 36.9c-1.2 0-2.2-.5-3.1-1.4-.9-1-1.3-2.1-1.3-3.5s.4-2.5 1.3-3.5 1.9-1.4 3.1-1.4c.7 0 1.3.1 1.9.4s1 .7 1.3 1.1h.1l-.1-1.3v-4.3h1.7v13.5h-1.7v-1.3h-.1c-.3.5-.7.9-1.3 1.2-.5.4-1.1.5-1.8.5zm.3-1.6c.9 0 1.6-.3 2.1-.9.6-.6.8-1.4.8-2.4s-.3-1.8-.8-2.4c-.6-.6-1.3-.9-2.1-.9s-1.5.3-2.1.9-.8 1.4-.8 2.4.3 1.8.8 2.4c.6.6 1.3.9 2.1.9z"/><path d="m79 36.6h-1.7v-13.5h1.7l4.7 8.2h.1l4.7-8.2h1.7v13.5h-1.7v-8l.1-2.3h-.1l-4.2 7.4h-1l-4.3-7.4h-.1l.1 2.3z"/><path d="m92 32c0-1.4.4-2.6 1.3-3.5s2-1.4 3.4-1.4 2.5.5 3.4 1.4 1.4 2.1 1.4 3.5-.5 2.6-1.4 3.5-2 1.4-3.4 1.4-2.5-.5-3.4-1.4c-.8-.9-1.3-2.1-1.3-3.5zm1.8 0c0 1 .3 1.8.9 2.4s1.3.9 2.1.9 1.6-.3 2.1-.9c.6-.6.9-1.4.9-2.4s-.3-1.8-.9-2.4-1.3-.9-2.1-.9-1.6.3-2.1.9c-.6.6-.9 1.4-.9 2.4z"/><path d="m107.9 36.9c-.7 0-1.3-.1-1.9-.4s-1-.7-1.3-1.2h-.1v1.3h-1.6v-13.5h1.7v4.3l-.1 1.3h.1c.3-.5.7-.9 1.3-1.1.6-.3 1.2-.4 1.9-.4 1.2 0 2.2.5 3.1 1.4.9 1 1.3 2.1 1.3 3.5s-.4 2.5-1.3 3.5c-.8.8-1.9 1.3-3.1 1.3zm-.3-1.6c.8 0 1.5-.3 2.1-.9s.8-1.4.8-2.4-.3-1.8-.8-2.4c-.6-.6-1.3-.9-2.1-.9s-1.5.3-2.1.9-.8 1.4-.8 2.4.3 1.8.8 2.4c.6.6 1.3.9 2.1.9z"/></g></svg>